<?xml version="1.0" encoding="utf-8"?>
<!-- Generator: Adobe Illustrator 18.1.0, SVG Export Plug-In . SVG Version: 6.00 Build 0)  -->
<!DOCTYPE svg PUBLIC "-//W3C//DTD SVG 1.1//EN" "http://www.w3.org/Graphics/SVG/1.1/DTD/svg11.dtd">
<svg version="1.1" id="Layer_1" xmlns="http://www.w3.org/2000/svg" xmlns:xlink="http://www.w3.org/1999/xlink" x="0px" y="0px"
	 viewBox="99.5 96.4 612.1 611.1" enable-background="new 99.5 96.4 612.1 611.1" xml:space="preserve">
<g id="Layer_2">
</g>
<path fill="#FFFFFF" d="M405.5,96.4c169.1,0,306,137,306,306s-138,305.1-306,305.1s-306-137-306-305.1S236.5,96.4,405.5,96.4"/>
<g>
	<path fill="#8B4513" d="M406.5,174.3c-125.4,0-227.3,101.7-227.3,227.3c0,93.1,55.9,172.9,136,208.1c-0.6-15.9-0.1-34.8,3.9-52.1
		c4.4-18.5,29.3-123.8,29.3-123.8s-7.3-14.5-7.3-35.9c0-33.7,19.5-58.8,43.8-58.8c20.7,0,30.7,15.5,30.7,34.1
		c0,20.8-13.3,51.8-20.1,80.7c-5.7,24.1,12.1,43.7,35.8,43.7c43,0,72.1-55.3,72.1-120.8c0-49.7-33.6-87.1-94.6-87.1
		c-68.9,0-111.8,51.4-111.8,108.8c0,19.9,5.9,33.8,15,44.6c4.2,4.9,4.8,7,3.2,12.7c-1.1,4.2-3.6,14.3-4.6,18.2
		c-1.5,5.8-6.2,7.8-11.4,5.7c-31.8-13-46.5-47.7-46.5-86.8c0-64.6,54.5-142,162.5-142c86.8,0,143.8,62.8,143.8,130.2
		c0,89.1-49.5,155.7-122.6,155.7c-24.6,0-47.6-13.3-55.5-28.4c0,0-13.2,52.3-16,62.5c-4.8,17.5-14.3,35-22.9,48.7
		c20.5,6,42,9.3,64.4,9.3c125.4,0,227.3-101.7,227.3-227.3S532.1,174.3,406.5,174.3z"/>
</g>
</svg>
