<?xml version="1.0" encoding="utf-8"?>
<!-- Generator: Adobe Illustrator 18.1.0, SVG Export Plug-In . SVG Version: 6.00 Build 0)  -->
<!DOCTYPE svg PUBLIC "-//W3C//DTD SVG 1.1//EN" "http://www.w3.org/Graphics/SVG/1.1/DTD/svg11.dtd">
<svg version="1.1" id="Layer_1" xmlns="http://www.w3.org/2000/svg" xmlns:xlink="http://www.w3.org/1999/xlink" x="0px" y="0px"
	 viewBox="99.5 6 612.9 612" enable-background="new 99.5 6 612.9 612" xml:space="preserve">
<g id="Layer_2">
</g>
<g id="Layer_1_1_">
	<path fill="#FFFFFF" d="M406,6c169.3,0,306.5,137.2,306.5,306.5S574.3,618,406,618S99.5,480.8,99.5,312.5S236.7,6,406,6"/>
	<g>
		<path fill="#808285" d="M407,84c-125.6,0-227.6,101.8-227.6,227.6c0,93.2,56,173.2,136.2,208.4c-0.6-15.9-0.1-34.9,3.9-52.2
			c4.4-18.5,29.3-124,29.3-124s-7.3-14.5-7.3-36c0-33.7,19.5-58.9,43.9-58.9c20.7,0,30.7,15.5,30.7,34.2c0,20.8-13.3,51.9-20.1,80.8
			c-5.7,24.1,12.1,43.8,35.9,43.8c43.1,0,72.2-55.4,72.2-121c0-49.8-33.6-87.2-94.7-87.2c-69,0-112,51.5-112,109
			c0,19.9,5.9,33.8,15,44.7c4.2,4.9,4.8,7,3.2,12.7c-1.1,4.2-3.6,14.3-4.6,18.2c-1.5,5.8-6.2,7.8-11.4,5.7
			c-31.8-13-46.6-47.8-46.6-86.9c0-64.7,54.6-142.2,162.7-142.2c86.9,0,144,62.9,144,130.4c0,89.2-49.6,155.9-122.8,155.9
			c-24.6,0-47.7-13.3-55.6-28.4c0,0-13.2,52.4-16,62.6c-4.8,17.5-14.3,35.1-22.9,48.8c20.5,6,42.1,9.3,64.5,9.3
			c125.6,0,227.6-101.8,227.6-227.6C634.5,185.9,532.7,84,407,84z"/>
	</g>
</g>
</svg>
