<?xml version="1.0" encoding="utf-8"?>
<!-- Generator: Adobe Illustrator 18.1.0, SVG Export Plug-In . SVG Version: 6.00 Build 0)  -->
<!DOCTYPE svg PUBLIC "-//W3C//DTD SVG 1.1//EN" "http://www.w3.org/Graphics/SVG/1.1/DTD/svg11.dtd">
<svg version="1.1" id="Layer_1" xmlns="http://www.w3.org/2000/svg" xmlns:xlink="http://www.w3.org/1999/xlink" x="0px" y="0px"
	 viewBox="84.5 22.8 612.9 612" enable-background="new 84.5 22.8 612.9 612" xml:space="preserve">
<g id="Layer_2">
</g>
<g id="Layer_1_1_">
	<path fill="#FFFFFF" d="M391,22.8c169.3,0,306.5,137.2,306.5,306.5S559.3,634.8,391,634.8S84.5,497.6,84.5,329.2
		S221.7,22.8,391,22.8"/>
	<path fill="#808285" d="M598.5,210.1c-14.8,6.6-30.6,11-47.3,13c17-10.2,30.1-26.3,36.2-45.6c-15.9,9.4-33.5,16.3-52.3,20
		c-15-16-36.4-26-60.1-26c-45.5,0-82.4,36.9-82.4,82.4c0,6.5,0.7,12.8,2.2,18.8c-68.5-3.5-129.1-36.2-169.7-86.1
		c-7.1,12.1-11.1,26.3-11.1,41.4c0,28.6,14.5,53.8,36.6,68.5c-13.5-0.5-26.2-4.1-37.3-10.3c0,0.3,0,0.7,0,1
		c0,39.9,28.4,73.2,66.1,80.8c-6.9,1.9-14.2,2.9-21.7,2.9c-5.3,0-10.4-0.5-15.5-1.5c10.5,32.7,40.9,56.5,76.9,57.2
		c-28.2,22.1-63.7,35.2-102.2,35.2c-6.6,0-13.2-0.4-19.6-1.2c36.5,23.3,79.7,37,126.2,37c151.5,0,234.3-125.5,234.3-234.3
		c0-3.6-0.1-7.1-0.2-10.7C573.5,241.1,587.5,226.5,598.5,210.1z"/>
</g>
</svg>
